<svg xmlns="http://www.w3.org/2000/svg" width="20" height="20" viewBox="0 0 20 20" fill="none" class="Socials_socialIcon__3yKMt" role="img" aria-hidden="true"><path d="M1.42894 8.83987C6.6656 6.53612 13.4423 3.72737 14.3777 3.33862C16.8314 2.32112 17.5844 2.51612 17.2089 4.76945C16.9394 6.38903 16.1614 11.7511 15.5414 15.0886C15.1735 17.0678 14.3481 17.3024 13.0502 16.4461C12.426 16.034 9.27561 13.9507 8.59186 13.4615C7.96769 13.0157 7.10685 12.4794 8.18644 11.4232C8.57061 11.0469 11.0889 8.64237 13.051 6.7707C13.3081 6.52487 12.9852 6.12112 12.6885 6.3182C10.0439 8.07195 6.37727 10.5061 5.9106 10.8232C5.2056 11.3019 4.52852 11.5215 3.3131 11.1724C2.39477 10.9086 1.49769 10.594 1.14852 10.474C-0.196063 10.0124 0.123104 9.41445 1.42894 8.83987Z" fill="#5D6570"></path></svg>